<mxfile host="app.diagrams.net" modified="2022-01-09T16:13:20.561Z" agent="5.0 (Macintosh; Intel Mac OS X 10_15_7) AppleWebKit/537.36 (KHTML, like Gecko) Chrome/96.0.4664.110 Safari/537.36" etag="OCE7H7ZTl8TpOwd1Bib4" version="16.2.4" type="github">
  <diagram id="C5RBs43oDa-KdzZeNtuy" name="Page-1">
    <mxGraphModel dx="1773" dy="646" grid="1" gridSize="10" guides="1" tooltips="1" connect="1" arrows="1" fold="1" page="1" pageScale="1" pageWidth="827" pageHeight="1169" math="0" shadow="0">
      <root>
        <mxCell id="WIyWlLk6GJQsqaUBKTNV-0" />
        <mxCell id="WIyWlLk6GJQsqaUBKTNV-1" parent="WIyWlLk6GJQsqaUBKTNV-0" />
        <mxCell id="AhL8R2B9VOhH9M5mt7-Z-12" value="" style="edgeStyle=orthogonalEdgeStyle;rounded=0;orthogonalLoop=1;jettySize=auto;html=1;" edge="1" parent="WIyWlLk6GJQsqaUBKTNV-1" source="AhL8R2B9VOhH9M5mt7-Z-10" target="AhL8R2B9VOhH9M5mt7-Z-11">
          <mxGeometry relative="1" as="geometry" />
        </mxCell>
        <mxCell id="AhL8R2B9VOhH9M5mt7-Z-14" value="" style="edgeStyle=orthogonalEdgeStyle;rounded=0;orthogonalLoop=1;jettySize=auto;html=1;" edge="1" parent="WIyWlLk6GJQsqaUBKTNV-1" source="AhL8R2B9VOhH9M5mt7-Z-10" target="AhL8R2B9VOhH9M5mt7-Z-13">
          <mxGeometry relative="1" as="geometry" />
        </mxCell>
        <mxCell id="AhL8R2B9VOhH9M5mt7-Z-10" value="Household has reached certain temperature" style="rounded=0;whiteSpace=wrap;html=1;" vertex="1" parent="WIyWlLk6GJQsqaUBKTNV-1">
          <mxGeometry x="320" y="40" width="120" height="60" as="geometry" />
        </mxCell>
        <mxCell id="AhL8R2B9VOhH9M5mt7-Z-16" value="" style="edgeStyle=orthogonalEdgeStyle;rounded=0;orthogonalLoop=1;jettySize=auto;html=1;" edge="1" parent="WIyWlLk6GJQsqaUBKTNV-1" source="AhL8R2B9VOhH9M5mt7-Z-11" target="AhL8R2B9VOhH9M5mt7-Z-15">
          <mxGeometry relative="1" as="geometry" />
        </mxCell>
        <mxCell id="AhL8R2B9VOhH9M5mt7-Z-34" value="" style="edgeStyle=orthogonalEdgeStyle;rounded=0;orthogonalLoop=1;jettySize=auto;html=1;" edge="1" parent="WIyWlLk6GJQsqaUBKTNV-1" source="AhL8R2B9VOhH9M5mt7-Z-11" target="AhL8R2B9VOhH9M5mt7-Z-33">
          <mxGeometry relative="1" as="geometry" />
        </mxCell>
        <mxCell id="AhL8R2B9VOhH9M5mt7-Z-11" value="Too Cold" style="rhombus;whiteSpace=wrap;html=1;rounded=0;" vertex="1" parent="WIyWlLk6GJQsqaUBKTNV-1">
          <mxGeometry x="540" y="30" width="80" height="80" as="geometry" />
        </mxCell>
        <mxCell id="AhL8R2B9VOhH9M5mt7-Z-20" value="" style="edgeStyle=orthogonalEdgeStyle;rounded=0;orthogonalLoop=1;jettySize=auto;html=1;" edge="1" parent="WIyWlLk6GJQsqaUBKTNV-1" source="AhL8R2B9VOhH9M5mt7-Z-13" target="AhL8R2B9VOhH9M5mt7-Z-19">
          <mxGeometry relative="1" as="geometry" />
        </mxCell>
        <mxCell id="AhL8R2B9VOhH9M5mt7-Z-23" value="" style="edgeStyle=orthogonalEdgeStyle;rounded=0;orthogonalLoop=1;jettySize=auto;html=1;" edge="1" parent="WIyWlLk6GJQsqaUBKTNV-1" source="AhL8R2B9VOhH9M5mt7-Z-13" target="AhL8R2B9VOhH9M5mt7-Z-22">
          <mxGeometry relative="1" as="geometry" />
        </mxCell>
        <mxCell id="AhL8R2B9VOhH9M5mt7-Z-13" value="Too warm?" style="rhombus;whiteSpace=wrap;html=1;rounded=0;" vertex="1" parent="WIyWlLk6GJQsqaUBKTNV-1">
          <mxGeometry x="140" y="30" width="80" height="80" as="geometry" />
        </mxCell>
        <mxCell id="AhL8R2B9VOhH9M5mt7-Z-37" value="" style="edgeStyle=orthogonalEdgeStyle;rounded=0;orthogonalLoop=1;jettySize=auto;html=1;" edge="1" parent="WIyWlLk6GJQsqaUBKTNV-1" source="AhL8R2B9VOhH9M5mt7-Z-15" target="AhL8R2B9VOhH9M5mt7-Z-36">
          <mxGeometry relative="1" as="geometry" />
        </mxCell>
        <mxCell id="AhL8R2B9VOhH9M5mt7-Z-15" value="Turn heating on" style="whiteSpace=wrap;html=1;rounded=0;" vertex="1" parent="WIyWlLk6GJQsqaUBKTNV-1">
          <mxGeometry x="680" y="40" width="120" height="60" as="geometry" />
        </mxCell>
        <mxCell id="AhL8R2B9VOhH9M5mt7-Z-17" value="Yes" style="text;html=1;align=center;verticalAlign=middle;resizable=0;points=[];autosize=1;strokeColor=none;fillColor=none;" vertex="1" parent="WIyWlLk6GJQsqaUBKTNV-1">
          <mxGeometry x="600" y="40" width="40" height="20" as="geometry" />
        </mxCell>
        <mxCell id="AhL8R2B9VOhH9M5mt7-Z-19" value="Turn heating off" style="whiteSpace=wrap;html=1;rounded=0;" vertex="1" parent="WIyWlLk6GJQsqaUBKTNV-1">
          <mxGeometry x="-40" y="40" width="120" height="60" as="geometry" />
        </mxCell>
        <mxCell id="AhL8R2B9VOhH9M5mt7-Z-21" value="Yes" style="text;html=1;align=center;verticalAlign=middle;resizable=0;points=[];autosize=1;strokeColor=none;fillColor=none;" vertex="1" parent="WIyWlLk6GJQsqaUBKTNV-1">
          <mxGeometry x="110" y="40" width="40" height="20" as="geometry" />
        </mxCell>
        <mxCell id="AhL8R2B9VOhH9M5mt7-Z-26" value="" style="edgeStyle=orthogonalEdgeStyle;rounded=0;orthogonalLoop=1;jettySize=auto;html=1;" edge="1" parent="WIyWlLk6GJQsqaUBKTNV-1" source="AhL8R2B9VOhH9M5mt7-Z-22" target="AhL8R2B9VOhH9M5mt7-Z-25">
          <mxGeometry relative="1" as="geometry" />
        </mxCell>
        <mxCell id="AhL8R2B9VOhH9M5mt7-Z-39" value="" style="edgeStyle=orthogonalEdgeStyle;rounded=0;orthogonalLoop=1;jettySize=auto;html=1;" edge="1" parent="WIyWlLk6GJQsqaUBKTNV-1" source="AhL8R2B9VOhH9M5mt7-Z-22">
          <mxGeometry relative="1" as="geometry">
            <mxPoint x="250" y="230" as="targetPoint" />
          </mxGeometry>
        </mxCell>
        <mxCell id="AhL8R2B9VOhH9M5mt7-Z-22" value="Turn heating on" style="rhombus;whiteSpace=wrap;html=1;rounded=0;" vertex="1" parent="WIyWlLk6GJQsqaUBKTNV-1">
          <mxGeometry x="140" y="190" width="80" height="80" as="geometry" />
        </mxCell>
        <mxCell id="AhL8R2B9VOhH9M5mt7-Z-24" value="No" style="text;html=1;align=center;verticalAlign=middle;resizable=0;points=[];autosize=1;strokeColor=none;fillColor=none;" vertex="1" parent="WIyWlLk6GJQsqaUBKTNV-1">
          <mxGeometry x="185" y="130" width="30" height="20" as="geometry" />
        </mxCell>
        <mxCell id="AhL8R2B9VOhH9M5mt7-Z-28" value="" style="edgeStyle=orthogonalEdgeStyle;rounded=0;orthogonalLoop=1;jettySize=auto;html=1;" edge="1" parent="WIyWlLk6GJQsqaUBKTNV-1" source="AhL8R2B9VOhH9M5mt7-Z-25" target="AhL8R2B9VOhH9M5mt7-Z-27">
          <mxGeometry relative="1" as="geometry" />
        </mxCell>
        <mxCell id="AhL8R2B9VOhH9M5mt7-Z-31" value="" style="edgeStyle=orthogonalEdgeStyle;rounded=0;orthogonalLoop=1;jettySize=auto;html=1;" edge="1" parent="WIyWlLk6GJQsqaUBKTNV-1" source="AhL8R2B9VOhH9M5mt7-Z-25" target="AhL8R2B9VOhH9M5mt7-Z-30">
          <mxGeometry relative="1" as="geometry" />
        </mxCell>
        <mxCell id="AhL8R2B9VOhH9M5mt7-Z-25" value="Set a timer?" style="rhombus;whiteSpace=wrap;html=1;rounded=0;" vertex="1" parent="WIyWlLk6GJQsqaUBKTNV-1">
          <mxGeometry x="140" y="350" width="80" height="80" as="geometry" />
        </mxCell>
        <mxCell id="AhL8R2B9VOhH9M5mt7-Z-27" value="Heating will be turned off manually&amp;nbsp;" style="ellipse;whiteSpace=wrap;html=1;rounded=0;" vertex="1" parent="WIyWlLk6GJQsqaUBKTNV-1">
          <mxGeometry x="-40" y="360" width="120" height="60" as="geometry" />
        </mxCell>
        <mxCell id="AhL8R2B9VOhH9M5mt7-Z-29" value="No" style="text;html=1;align=center;verticalAlign=middle;resizable=0;points=[];autosize=1;strokeColor=none;fillColor=none;" vertex="1" parent="WIyWlLk6GJQsqaUBKTNV-1">
          <mxGeometry x="110" y="360" width="30" height="20" as="geometry" />
        </mxCell>
        <mxCell id="AhL8R2B9VOhH9M5mt7-Z-30" value="Heating will be turned off automatically&amp;nbsp;" style="ellipse;whiteSpace=wrap;html=1;rounded=0;" vertex="1" parent="WIyWlLk6GJQsqaUBKTNV-1">
          <mxGeometry x="120" y="520" width="120" height="60" as="geometry" />
        </mxCell>
        <mxCell id="AhL8R2B9VOhH9M5mt7-Z-32" value="Yes" style="text;html=1;align=center;verticalAlign=middle;resizable=0;points=[];autosize=1;strokeColor=none;fillColor=none;" vertex="1" parent="WIyWlLk6GJQsqaUBKTNV-1">
          <mxGeometry x="110" y="460" width="40" height="20" as="geometry" />
        </mxCell>
        <mxCell id="AhL8R2B9VOhH9M5mt7-Z-33" value="Turn heating off" style="rhombus;whiteSpace=wrap;html=1;rounded=0;" vertex="1" parent="WIyWlLk6GJQsqaUBKTNV-1">
          <mxGeometry x="540" y="130" width="80" height="80" as="geometry" />
        </mxCell>
        <mxCell id="AhL8R2B9VOhH9M5mt7-Z-35" value="No" style="text;html=1;align=center;verticalAlign=middle;resizable=0;points=[];autosize=1;strokeColor=none;fillColor=none;" vertex="1" parent="WIyWlLk6GJQsqaUBKTNV-1">
          <mxGeometry x="530" y="110" width="30" height="20" as="geometry" />
        </mxCell>
        <mxCell id="AhL8R2B9VOhH9M5mt7-Z-36" value="Set a timer?" style="rhombus;whiteSpace=wrap;html=1;rounded=0;" vertex="1" parent="WIyWlLk6GJQsqaUBKTNV-1">
          <mxGeometry x="700" y="170" width="80" height="80" as="geometry" />
        </mxCell>
        <mxCell id="AhL8R2B9VOhH9M5mt7-Z-44" value="" style="edgeStyle=orthogonalEdgeStyle;rounded=0;orthogonalLoop=1;jettySize=auto;html=1;" edge="1" parent="WIyWlLk6GJQsqaUBKTNV-1" source="AhL8R2B9VOhH9M5mt7-Z-40" target="AhL8R2B9VOhH9M5mt7-Z-43">
          <mxGeometry relative="1" as="geometry" />
        </mxCell>
        <mxCell id="AhL8R2B9VOhH9M5mt7-Z-40" value="Turn off heating after reaching max Temp" style="shape=trapezoid;perimeter=trapezoidPerimeter;whiteSpace=wrap;html=1;fixedSize=1;" vertex="1" parent="WIyWlLk6GJQsqaUBKTNV-1">
          <mxGeometry x="240" y="195" width="130" height="70" as="geometry" />
        </mxCell>
        <mxCell id="AhL8R2B9VOhH9M5mt7-Z-43" value="Automatic turn off" style="rhombus;whiteSpace=wrap;html=1;" vertex="1" parent="WIyWlLk6GJQsqaUBKTNV-1">
          <mxGeometry x="390" y="180" width="100" height="100" as="geometry" />
        </mxCell>
        <mxCell id="AhL8R2B9VOhH9M5mt7-Z-45" value="Yes" style="text;html=1;align=center;verticalAlign=middle;resizable=0;points=[];autosize=1;strokeColor=none;fillColor=none;" vertex="1" parent="WIyWlLk6GJQsqaUBKTNV-1">
          <mxGeometry x="360" y="200" width="40" height="20" as="geometry" />
        </mxCell>
        <mxCell id="AhL8R2B9VOhH9M5mt7-Z-47" value="No" style="text;html=1;align=center;verticalAlign=middle;resizable=0;points=[];autosize=1;strokeColor=none;fillColor=none;" vertex="1" parent="WIyWlLk6GJQsqaUBKTNV-1">
          <mxGeometry x="315" y="290" width="30" height="20" as="geometry" />
        </mxCell>
        <mxCell id="AhL8R2B9VOhH9M5mt7-Z-50" style="edgeStyle=orthogonalEdgeStyle;rounded=0;orthogonalLoop=1;jettySize=auto;html=1;exitX=0.5;exitY=0;exitDx=0;exitDy=0;" edge="1" parent="WIyWlLk6GJQsqaUBKTNV-1" source="AhL8R2B9VOhH9M5mt7-Z-49">
          <mxGeometry relative="1" as="geometry">
            <mxPoint x="305" y="270" as="targetPoint" />
          </mxGeometry>
        </mxCell>
        <mxCell id="AhL8R2B9VOhH9M5mt7-Z-49" value="Manual turn off" style="rhombus;whiteSpace=wrap;html=1;" vertex="1" parent="WIyWlLk6GJQsqaUBKTNV-1">
          <mxGeometry x="255" y="310" width="100" height="100" as="geometry" />
        </mxCell>
      </root>
    </mxGraphModel>
  </diagram>
</mxfile>
